# xmcd
# 
# Track frame offsets:
#     150
#     22696
#     39240
#     58002
#     77453
#     96260
#     121564
#     136903
#     150114
#     166143
#     192767
#     212609
# 
# Disc length: 3075
# 
# Revision: 0
# Processed by: cddbd v1.5.2PL0 Copyright (c) Steve Scherf et al.
# Submitted via: BonkEnc v1.0.8
# 
DISCID=7b0c010c
DTITLE=Bruce Springsteen - Devils and Dust
DYEAR=2005
DGENRE=Rock
TTITLE0=Bruce Springsteen - Devils and Dust
TTITLE1=All The Way Home
TTITLE2=Reno
TTITLE3=Long Time Comin'
TTITLE4=Black Cowboys
TTITLE5=Maria's Bed
TTITLE6=Silver Palomino
TTITLE7=Jesus Was An Only Son
TTITLE8=Leah
TTITLE9=The Hitter
TTITLE10=All I'm Thinkin' About
TTITLE11=Matamoros Banks
EXTD=By Jules YEAR: 2005
EXTT0=
EXTT1=
EXTT2=
EXTT3=
EXTT4=
EXTT5=
EXTT6=
EXTT7=
EXTT8=
EXTT9=
EXTT10=
EXTT11=
PLAYORDER=
